<?xml version="1.0" standalone="no"?>
<!DOCTYPE svg PUBLIC "-//W3C//DTD SVG 20010904//EN"
 "http://www.w3.org/TR/2001/REC-SVG-20010904/DTD/svg10.dtd">
<svg version="1.0" xmlns="http://www.w3.org/2000/svg"
 width="512.000000pt" height="512.000000pt" viewBox="0 0 512.000000 512.000000"
 preserveAspectRatio="xMidYMid meet">

<g transform="translate(0.000000,512.000000) scale(0.100000,-0.100000)"
fill="#000000" stroke="none">
<path d="M186 4092 c-99 -229 -181 -420 -183 -424 -2 -5 353 -8 789 -8 l793 0
160 373 c87 204 169 396 182 425 l23 52 -793 0 -792 0 -179 -418z"/>
<path d="M2410 4502 c0 -4 80 -195 179 -423 l179 -414 791 -3 c435 -1 791 0
791 2 0 5 -322 755 -351 819 l-12 27 -789 0 c-433 0 -788 -4 -788 -8z"/>
<path d="M1903 3643 l-119 -278 -682 -3 -682 -2 0 -995 0 -995 805 0 805 0 0
1275 c0 701 -2 1275 -4 1275 -2 0 -57 -125 -123 -277z m-805 -1740 l-3 -148
-147 -3 -148 -3 0 151 0 150 150 0 151 0 -3 -147z"/>
<path d="M2330 2642 l0 -1272 245 0 246 0 -8 53 c-13 85 -9 365 6 442 33 167
106 343 203 490 65 99 249 286 343 347 163 107 343 182 503 210 l72 12 0 218
0 218 -684 0 -683 0 -118 273 c-65 149 -119 274 -121 276 -2 2 -4 -568 -4
-1267z"/>
<path d="M3907 2614 c-473 -102 -806 -509 -807 -985 0 -272 95 -510 279 -702
396 -412 1040 -420 1442 -18 292 292 378 724 220 1103 -129 309 -404 534 -734
602 -96 20 -307 20 -400 0z m428 -1094 l-390 -390 -240 240 -240 240 108 107
107 108 135 -135 135 -135 283 283 282 282 105 -105 105 -105 -390 -390z"/>
</g>
</svg>
