<?xml version="1.0" standalone="no"?>
<!DOCTYPE svg PUBLIC "-//W3C//DTD SVG 20010904//EN"
 "http://www.w3.org/TR/2001/REC-SVG-20010904/DTD/svg10.dtd">
<svg version="1.0" xmlns="http://www.w3.org/2000/svg"
 width="512.000000pt" height="512.000000pt" viewBox="0 0 512.000000 512.000000"
 preserveAspectRatio="xMidYMid meet">

<g transform="translate(0.000000,512.000000) scale(0.100000,-0.100000)"
fill="#000000" stroke="none">
<path d="M1430 5109 c-596 -41 -1076 -190 -1292 -400 -97 -94 -133 -173 -133
-289 0 -116 36 -195 133 -289 370 -361 1502 -516 2435 -335 469 91 790 261
889 470 29 61 33 79 33 154 0 75 -4 93 -33 154 -134 284 -663 485 -1410 536
-173 11 -450 11 -622 -1z m690 -559 c45 -23 80 -80 80 -130 0 -50 -35 -107
-80 -130 -37 -19 -58 -20 -371 -20 -325 0 -332 0 -371 22 -101 57 -102 194 -2
254 39 24 40 24 372 24 314 0 335 -1 372 -20z"/>
<path d="M3360 5086 c176 -109 297 -230 365 -369 80 -162 75 -6 75 -2124 l0
-1893 600 0 c582 0 602 1 640 20 26 13 47 34 60 60 20 39 20 54 20 2130 0
2076 0 2091 -20 2130 -13 26 -34 47 -60 60 -38 20 -57 20 -887 20 l-848 0 55
-34z"/>
<path d="M2 2232 l3 -1617 33 -69 c61 -130 213 -249 429 -337 681 -278 1888
-277 2569 1 214 87 365 206 426 336 l33 69 3 1616 2 1617 -95 -63 c-255 -168
-648 -283 -1167 -342 -215 -24 -760 -24 -978 0 -533 59 -934 181 -1198 363
l-62 43 2 -1617z m1902 589 c39 -19 80 -49 102 -74 43 -50 223 -358 236 -404
29 -105 -83 -207 -192 -174 -51 15 -68 38 -175 224 -49 86 -98 160 -107 163
-10 3 -26 3 -35 0 -10 -4 -63 -83 -118 -178 -56 -96 -112 -181 -128 -192 -39
-29 -125 -29 -163 0 -49 36 -68 70 -68 121 0 42 12 69 100 221 54 95 114 191
132 213 99 117 274 150 416 80z m-766 -988 c47 -35 66 -70 66 -121 0 -43 -11
-67 -97 -216 -53 -92 -97 -178 -97 -191 0 -14 8 -29 19 -35 12 -6 99 -10 213
-10 217 0 244 -6 285 -69 48 -71 20 -174 -57 -214 -31 -16 -60 -18 -270 -15
-234 3 -235 3 -291 31 -67 33 -142 109 -171 175 -26 58 -36 183 -18 238 7 22
59 121 117 221 96 167 126 207 173 226 27 11 102 0 128 -20z m1390 -2 c38 -27
236 -367 253 -434 18 -72 7 -176 -25 -241 -39 -80 -120 -150 -203 -176 -57
-17 -93 -20 -277 -20 -237 0 -261 6 -303 69 -48 71 -20 175 57 213 30 15 64
18 228 18 114 0 201 4 213 10 11 6 19 21 19 35 0 13 -41 95 -91 181 -50 87
-96 172 -101 191 -18 65 24 144 92 172 37 16 104 7 138 -18z"/>
</g>
</svg>
